<svg width="32" height="32" viewBox="0 0 32 32" fill="none" xmlns="http://www.w3.org/2000/svg">
<rect x="0.5" y="0.5" width="31" height="31" rx="15.5" fill="white"/>
<rect x="0.5" y="0.5" width="31" height="31" rx="15.5" stroke="#195EBC"/>
<path d="M21.0306 16.5306L13.5306 24.0306C13.4609 24.1002 13.3781 24.1555 13.2871 24.1932C13.1961 24.2309 13.0985 24.2503 12.9999 24.2503C12.9014 24.2503 12.8038 24.2309 12.7128 24.1932C12.6217 24.1555 12.539 24.1002 12.4693 24.0306C12.3996 23.9609 12.3443 23.8781 12.3066 23.7871C12.2689 23.6961 12.2495 23.5985 12.2495 23.4999C12.2495 23.4014 12.2689 23.3038 12.3066 23.2128C12.3443 23.1217 12.3996 23.039 12.4693 22.9693L19.4396 15.9999L12.4693 9.03055C12.3286 8.88982 12.2495 8.69895 12.2495 8.49993C12.2495 8.30091 12.3286 8.11003 12.4693 7.9693C12.61 7.82857 12.8009 7.74951 12.9999 7.74951C13.199 7.74951 13.3898 7.82857 13.5306 7.9693L21.0306 15.4693C21.1003 15.539 21.1556 15.6217 21.1933 15.7127C21.2311 15.8038 21.2505 15.9014 21.2505 15.9999C21.2505 16.0985 21.2311 16.1961 21.1933 16.2871C21.1556 16.3782 21.1003 16.4609 21.0306 16.5306Z" fill="#195EBC"/>
</svg>
