<svg width="25" height="25" viewBox="0 0 25 25" fill="none" xmlns="http://www.w3.org/2000/svg">
<path d="M20.7511 19.2143C19.5188 17.0838 17.6197 15.5561 15.4034 14.8319C16.4997 14.1793 17.3514 13.1848 17.8278 12.0013C18.3042 10.8178 18.3789 9.51059 18.0405 8.28048C17.702 7.05037 16.9692 5.96536 15.9544 5.19208C14.9397 4.4188 13.6991 4 12.4233 4C11.1475 4 9.90694 4.4188 8.89218 5.19208C7.87742 5.96536 7.14455 7.05037 6.80612 8.28048C6.46769 9.51059 6.54241 10.8178 7.0188 12.0013C7.4952 13.1848 8.34693 14.1793 9.44319 14.8319C7.22693 15.5553 5.32785 17.083 4.09551 19.2143C4.05032 19.2879 4.02034 19.3699 4.00735 19.4554C3.99436 19.5409 3.99862 19.6281 4.01987 19.7118C4.04113 19.7956 4.07895 19.8743 4.13111 19.9433C4.18326 20.0122 4.2487 20.07 4.32355 20.1132C4.3984 20.1564 4.48115 20.1843 4.56693 20.195C4.6527 20.2057 4.73975 20.1992 4.82295 20.1757C4.90615 20.1523 4.98381 20.1124 5.05135 20.0584C5.11889 20.0045 5.17493 19.9375 5.21618 19.8616C6.74063 17.227 9.4351 15.654 12.4233 15.654C15.4115 15.654 18.106 17.227 19.6304 19.8616C19.6717 19.9375 19.7277 20.0045 19.7953 20.0584C19.8628 20.1124 19.9404 20.1523 20.0236 20.1757C20.1068 20.1992 20.1939 20.2057 20.2797 20.195C20.3654 20.1843 20.4482 20.1564 20.5231 20.1132C20.5979 20.07 20.6633 20.0122 20.7155 19.9433C20.7677 19.8743 20.8055 19.7956 20.8267 19.7118C20.848 19.6281 20.8522 19.5409 20.8392 19.4554C20.8263 19.3699 20.7963 19.2879 20.7511 19.2143ZM7.89205 9.8281C7.89205 8.9319 8.1578 8.05583 8.6557 7.31067C9.1536 6.56551 9.86129 5.98472 10.6893 5.64177C11.5172 5.29881 12.4283 5.20907 13.3073 5.38391C14.1863 5.55875 14.9937 5.99031 15.6274 6.62402C16.2611 7.25772 16.6926 8.06512 16.8675 8.94409C17.0423 9.82307 16.9526 10.7342 16.6096 11.5621C16.2667 12.3901 15.6859 13.0978 14.9407 13.5957C14.1956 14.0936 13.3195 14.3593 12.4233 14.3593C11.2219 14.3581 10.0701 13.8803 9.22064 13.0308C8.37115 12.1813 7.89334 11.0295 7.89205 9.8281Z" fill="#ACACAC"/>
</svg>
